<svg id="Group_22" data-name="Group 22" xmlns="http://www.w3.org/2000/svg" xmlns:xlink="http://www.w3.org/1999/xlink" width="69.613" height="143.918" viewBox="0 0 69.613 143.918">
  <defs>
    <clipPath id="clip-path">
      <path id="Path_3" data-name="Path 3" d="M44.54,14.337c-39.168,30.371.443,67.78.443,67.78,23.325,31.687,7.481,62.054,7.481,62.054a46.607,46.607,0,0,0,19.367-15.844c13.641-20.683-6.6-47.97-6.6-47.97C40.583,43.826,56.865,31.5,56.865,31.5S51.144,54.83,73.152,78.6s11,44.447,11,44.447,5.717-1.321,10.122-16.725,4.844-25.962-12.325-58.092S74.907.253,74.907.253C63.489,2.185,53.641,7.467,44.54,14.337" transform="translate(-27.246 -0.253)" fill="none"/>
    </clipPath>
    <linearGradient id="linear-gradient" x1="-0.688" y1="1.718" x2="-0.652" y2="1.718" gradientUnits="objectBoundingBox">
      <stop offset="0" stop-color="#00702e"/>
      <stop offset="1" stop-color="#aec905"/>
    </linearGradient>
  </defs>
  <g id="Group_1" data-name="Group 1" clip-path="url(#clip-path)">
    <rect id="Rectangle_1" data-name="Rectangle 1" width="115.14" height="156.828" transform="translate(-44.144 3.534) rotate(-9.014)" fill="url(#linear-gradient)"/>
  </g>
</svg>
