<svg xmlns="http://www.w3.org/2000/svg" xmlns:xlink="http://www.w3.org/1999/xlink" width="202.846" height="178.898" viewBox="0 0 202.846 178.898">
  <defs>
    <clipPath id="clip-path">
      <path id="Path_7488" data-name="Path 7488" d="M38.96,9.794c-26.53,20.572.3,45.907.3,45.907,15.8,21.466,5.067,42.035,5.067,42.035A31.569,31.569,0,0,0,57.446,87c9.24-14.013-4.473-32.492-4.473-32.492C36.28,29.768,47.308,21.42,47.308,21.42s-3.875,15.8,11.032,31.9,7.454,30.111,7.454,30.111,3.873-.9,6.856-11.329S75.931,54.512,64.3,32.749,59.529.254,59.529.254C51.8,1.562,45.125,5.141,38.96,9.794" transform="translate(-27.246 -0.254)" fill="none"/>
    </clipPath>
    <linearGradient id="linear-gradient" x1="-0.688" y1="1.719" x2="-0.652" y2="1.719" gradientUnits="objectBoundingBox">
      <stop offset="0" stop-color="#006c2d"/>
      <stop offset="1" stop-color="#bdcf00"/>
    </linearGradient>
    <clipPath id="clip-path-2">
      <path id="Path_7489" data-name="Path 7489" d="M24.449,16.379s7.645,11.76,6.47,26.167,0,22.341,8.229,21.461S46.8,50.188,37.386,35.195,24.449,16.379,24.449,16.379Z" transform="translate(-24.449 -16.379)" fill="none"/>
    </clipPath>
    <linearGradient id="linear-gradient-2" x1="-1.118" y1="2.611" x2="-1.062" y2="2.611" gradientUnits="objectBoundingBox">
      <stop offset="0" stop-color="#4eaed7"/>
      <stop offset="1" stop-color="#0f65ad"/>
    </linearGradient>
    <clipPath id="clip-path-3">
      <path id="Path_7490" data-name="Path 7490" d="M46.826.361c-8.231.881-7.645,13.818,1.764,28.811S61.525,47.985,61.525,47.985s-7.64-11.757-6.465-26.164C56.174,8.142,55.172.3,48.015.294a11.162,11.162,0,0,0-1.189.067" transform="translate(-41.064 -0.294)" fill="none"/>
    </clipPath>
    <linearGradient id="linear-gradient-3" x1="-2.037" y1="3.52" x2="-1.979" y2="3.52" xlink:href="#linear-gradient-2"/>
    <clipPath id="clip-path-4">
      <rect id="Rectangle_432" data-name="Rectangle 432" width="202.846" height="178.899" fill="none"/>
    </clipPath>
  </defs>
  <g id="Group_929" data-name="Group 929" transform="translate(0 -0.001)">
    <path id="Path_7486" data-name="Path 7486" d="M48.461,73.767H11.618V4.7l42.038.164-.025,6.5-35.515-.142V67.272H48.461Z" transform="translate(20.658 8.349)" fill="#2bbba7"/>
    <path id="Path_7487" data-name="Path 7487" d="M89.477,73.76H44.408v-6.5H82.979V11.2H55.526V4.7H89.477Z" transform="translate(78.961 8.357)" fill="#2bbba7"/>
    <g id="Group_922" data-name="Group 922" transform="translate(75.692 0.705)">
      <g id="Group_921" data-name="Group 921" clip-path="url(#clip-path)">
        <rect id="Rectangle_429" data-name="Rectangle 429" width="77.989" height="106.227" transform="translate(-29.9 2.391) rotate(-9.014)" fill="url(#linear-gradient)"/>
      </g>
    </g>
    <g id="Group_924" data-name="Group 924" transform="translate(67.921 45.501)">
      <g id="Group_923" data-name="Group 923" clip-path="url(#clip-path-2)">
        <rect id="Rectangle_430" data-name="Rectangle 430" width="49.053" height="51.707" transform="translate(-23.993 20.704) rotate(-40.793)" fill="url(#linear-gradient-2)"/>
      </g>
    </g>
    <g id="Group_926" data-name="Group 926" transform="translate(114.077 0.816)">
      <g id="Group_925" data-name="Group 925" clip-path="url(#clip-path-3)">
        <rect id="Rectangle_431" data-name="Rectangle 431" width="48.518" height="51.087" transform="matrix(0.757, -0.653, 0.653, 0.757, -26.058, 20.355)" fill="url(#linear-gradient-3)"/>
      </g>
    </g>
    <g id="Group_928" data-name="Group 928" transform="translate(0 0.001)">
      <g id="Group_927" data-name="Group 927" clip-path="url(#clip-path-4)">
        <path id="Path_7491" data-name="Path 7491" d="M182.463,67.926V37.968h5.756V53.689l7.04-7.876h7.123l-7.712,8.2,8.176,13.913h-7.1l-5.289-9.42-2.236,2.422v7ZM155.9,56.839q0-5.509,2.992-8.665a12.274,12.274,0,0,1,16.427,0q3,3.154,3,8.665,0,5.53-3,8.687a12.282,12.282,0,0,1-16.427,0q-2.988-3.155-2.992-8.687m6,0a8.293,8.293,0,0,0,1.356,5.084,5.005,5.005,0,0,0,7.67,0,8.293,8.293,0,0,0,1.356-5.084,8.277,8.277,0,0,0-1.342-5.056,5.045,5.045,0,0,0-7.684,0,8.22,8.22,0,0,0-1.356,5.056m-31.317,0q0-5.509,2.992-8.665a12.274,12.274,0,0,1,16.427,0q3,3.154,3,8.665,0,5.53-3,8.687a12.282,12.282,0,0,1-16.427,0q-2.992-3.155-2.992-8.687m6,0a8.293,8.293,0,0,0,1.353,5.084,5.008,5.008,0,0,0,7.673,0,8.293,8.293,0,0,0,1.353-5.084,8.277,8.277,0,0,0-1.339-5.056,5.048,5.048,0,0,0-7.687,0,8.22,8.22,0,0,0-1.353,5.056M115.706,67.926V45.813H121.2V49.6a8.846,8.846,0,0,1,2.709-3.342,6.289,6.289,0,0,1,3.678-1.07c.231,0,.411,0,.542.008a2.472,2.472,0,0,1,.314.036l.019,6h-1.97a4.838,4.838,0,0,0-3.639,1.264,5.178,5.178,0,0,0-1.222,3.742v11.69Zm-9.907-11.2a7.929,7.929,0,0,0-1.286-4.792A4.122,4.122,0,0,0,101,50.188a4.324,4.324,0,0,0-3.653,1.7,7.856,7.856,0,0,0-1.289,4.831,8.889,8.889,0,0,0,1.228,5.123,4.114,4.114,0,0,0,3.589,1.75,4.208,4.208,0,0,0,3.659-1.759,8.718,8.718,0,0,0,1.264-5.114M90.3,37.968H96.06v10.6a7.359,7.359,0,0,1,2.756-2.617,8.256,8.256,0,0,1,10.323,2.422,13.7,13.7,0,0,1,2.542,8.6,13.312,13.312,0,0,1-2.542,8.479,8.036,8.036,0,0,1-6.628,3.234,7.4,7.4,0,0,1-3.717-.895,8.573,8.573,0,0,1-2.859-2.848v2.992H90.3Zm-25,29.959V45.813h5.8v2.625a8.079,8.079,0,0,1,2.928-2.409,8.682,8.682,0,0,1,3.764-.806q3.663,0,5.484,1.9C84.492,48.4,85.1,50.3,85.1,52.855V67.926H79.175V54.561a5.533,5.533,0,0,0-.806-3.395,3.11,3.11,0,0,0-2.609-1.02,4.406,4.406,0,0,0-3.311,1.25,4.676,4.676,0,0,0-1.225,3.409V67.926ZM54.467,57.039a15.78,15.78,0,0,1-3.325,1.086c-1.258.269-1.911.408-1.945.422A4.828,4.828,0,0,0,47,59.664a2.652,2.652,0,0,0-.617,1.853,2.509,2.509,0,0,0,.792,1.947,3.077,3.077,0,0,0,2.136.72,5.144,5.144,0,0,0,3.778-1.353,4.948,4.948,0,0,0,1.375-3.695Zm.1,8.145a7.433,7.433,0,0,1-2.928,2.631,9.3,9.3,0,0,1-4.217.9,6.494,6.494,0,0,1-4.951-1.834,7.269,7.269,0,0,1-1.742-5.206A6.268,6.268,0,0,1,42.468,56.9q1.738-1.654,5.751-2.261c.608-.089,1.408-.2,2.4-.319,2.514-.325,3.764-1.056,3.764-2.181a2.178,2.178,0,0,0-.833-1.922,5.1,5.1,0,0,0-2.784-.578,4.551,4.551,0,0,0-2.75.711,2.381,2.381,0,0,0-.958,2.031v.328H41.524V52.3a6.475,6.475,0,0,1,2.4-5.334,10.244,10.244,0,0,1,6.631-1.945q4.634,0,7.109,1.606a5.208,5.208,0,0,1,2.47,4.637V63.837a5.765,5.765,0,0,0,.286,2.07,1.949,1.949,0,0,0,.958,1.02v1H55.217a5.265,5.265,0,0,1-.467-1.261,7.083,7.083,0,0,1-.181-1.481m-16.093,2.9c-.542.014-1.186.042-1.945.075s-1.228.05-1.428.05c-2.272,0-3.82-.425-4.653-1.27S29.2,64.42,29.2,61.928V49.966H26.272V45.813H29.2v-6.04h5.859v6.04h3.414v4.153H35.062V62.212a1.346,1.346,0,0,0,.386,1.147,3.005,3.005,0,0,0,1.583.278h1.445ZM0,58.672H6.081A5.138,5.138,0,0,0,8.1,62.326a8.259,8.259,0,0,0,4.817,1.186,7.032,7.032,0,0,0,4.048-.958,3.212,3.212,0,0,0,1.361-2.825q0-2.729-7.831-4.514l-.181-.042c-.139-.025-.347-.075-.631-.144A19.455,19.455,0,0,1,3.7,52.972a6.54,6.54,0,0,1-2.422-2.734,9.2,9.2,0,0,1-.833-4.056,8.018,8.018,0,0,1,2.973-6.706Q6.384,37.151,12,37.148q5.251,0,8.209,2.481a9.105,9.105,0,0,1,3.123,7H17.4a4.341,4.341,0,0,0-1.667-3.311,7.013,7.013,0,0,0-4.289-1.139,6.284,6.284,0,0,0-3.734.945A3.118,3.118,0,0,0,6.4,45.813c0,1.592,1.7,2.77,5.1,3.564.925.214,1.647.381,2.159.506,2.181.556,3.736.992,4.645,1.3a14.658,14.658,0,0,1,2.4,1.042,6.832,6.832,0,0,1,2.742,2.695,8.3,8.3,0,0,1,.917,4.02,8.823,8.823,0,0,1-3.153,7.248q-3.154,2.571-8.887,2.575-5.655,0-8.865-2.625A9.735,9.735,0,0,1,0,58.672" transform="translate(0 66.05)" fill="#ee7c00"/>
        <line id="Line_15" data-name="Line 15" x1="52.219" transform="translate(0 149.681)" fill="none" stroke="#009d97" stroke-width="0.638"/>
        <path id="Path_7492" data-name="Path 7492" d="M85.935,64.193V55.109h1.383v1.283a3.193,3.193,0,0,1,2.747-1.475,2.985,2.985,0,0,1,1.65.417,2.225,2.225,0,0,1,.908,1.17,3.275,3.275,0,0,1,2.814-1.586,2.784,2.784,0,0,1,2.086.745,3.191,3.191,0,0,1,.731,2.3v6.228H96.716V58.476a4.185,4.185,0,0,0-.153-1.328,1.267,1.267,0,0,0-.544-.653,1.7,1.7,0,0,0-.925-.25,2.163,2.163,0,0,0-1.595.636,2.811,2.811,0,0,0-.633,2.039v5.273H91.324V58.3a2.6,2.6,0,0,0-.375-1.539,1.425,1.425,0,0,0-1.231-.514,2.245,2.245,0,0,0-1.2.342,1.942,1.942,0,0,0-.8,1,5.653,5.653,0,0,0-.244,1.895v4.709ZM73.353,61.479l1.522-.244a2.139,2.139,0,0,0,.717,1.4,2.507,2.507,0,0,0,1.639.486,2.416,2.416,0,0,0,1.578-.431,1.289,1.289,0,0,0,.514-1.011.928.928,0,0,0-.464-.82,6.686,6.686,0,0,0-1.575-.522,14.486,14.486,0,0,1-2.339-.736,2.248,2.248,0,0,1-1.328-2.078,2.346,2.346,0,0,1,.275-1.122,2.531,2.531,0,0,1,.758-.858,3.234,3.234,0,0,1,.975-.444,4.663,4.663,0,0,1,1.328-.183,5.158,5.158,0,0,1,1.872.308,2.53,2.53,0,0,1,1.192.833,3.26,3.26,0,0,1,.528,1.414l-1.5.208a1.691,1.691,0,0,0-.592-1.108,2.156,2.156,0,0,0-1.386-.4,2.506,2.506,0,0,0-1.508.35,1.026,1.026,0,0,0-.453.82.847.847,0,0,0,.189.542,1.348,1.348,0,0,0,.589.406c.153.058.6.192,1.356.394a19.491,19.491,0,0,1,2.275.711,2.335,2.335,0,0,1,1.014.806A2.239,2.239,0,0,1,80.9,61.52a2.568,2.568,0,0,1-.45,1.445,2.953,2.953,0,0,1-1.295,1.05,4.747,4.747,0,0,1-1.917.369,4.289,4.289,0,0,1-2.7-.733,3.414,3.414,0,0,1-1.183-2.172m-6.492-6.37H68.4v9.084H66.861Zm0-3.448H68.4v1.75H66.861ZM57.8,64.193V55.109h1.383V56.5a3.684,3.684,0,0,1,.981-1.275,1.7,1.7,0,0,1,.989-.308,3.04,3.04,0,0,1,1.583.486l-.547,1.42a2.291,2.291,0,0,0-1.122-.314,1.454,1.454,0,0,0-.9.3,1.642,1.642,0,0,0-.569.839,5.948,5.948,0,0,0-.258,1.795v4.748Zm-7,0V62.84a3.306,3.306,0,0,1-2.873,1.545,3.7,3.7,0,0,1-1.5-.306,2.467,2.467,0,0,1-1.031-.775,2.92,2.92,0,0,1-.475-1.139,8.015,8.015,0,0,1-.092-1.436v-5.62h1.539v5.026a9.083,9.083,0,0,0,.094,1.622,1.579,1.579,0,0,0,.614.95,1.9,1.9,0,0,0,1.158.347,2.531,2.531,0,0,0,1.3-.353,2,2,0,0,0,.856-.964,4.88,4.88,0,0,0,.25-1.772V55.109h1.542v9.084ZM32.907,59.653a3.842,3.842,0,0,0,.761,2.6,2.55,2.55,0,0,0,3.834,0,3.935,3.935,0,0,0,.761-2.65,3.725,3.725,0,0,0-.767-2.545,2.437,2.437,0,0,0-1.9-.867,2.462,2.462,0,0,0-1.925.861,3.844,3.844,0,0,0-.761,2.6m-1.575,0a4.661,4.661,0,0,1,1.4-3.728,4.227,4.227,0,0,1,2.859-1.006,4.081,4.081,0,0,1,3.059,1.225,4.657,4.657,0,0,1,1.186,3.381,5.986,5.986,0,0,1-.525,2.75,3.744,3.744,0,0,1-1.531,1.558,4.458,4.458,0,0,1-2.189.553,4.09,4.09,0,0,1-3.086-1.22,4.87,4.87,0,0,1-1.175-3.514m-4.159,3.167.211,1.358a5.677,5.677,0,0,1-1.158.139,2.611,2.611,0,0,1-1.3-.267,1.5,1.5,0,0,1-.65-.7,5.557,5.557,0,0,1-.186-1.82V56.3H22.956V55.109h1.136V52.861l1.542-.922v3.17h1.539V56.3H25.634V61.62a2.651,2.651,0,0,0,.081.847.635.635,0,0,0,.261.3,1.054,1.054,0,0,0,.525.111,4.724,4.724,0,0,0,.672-.061" transform="translate(40.817 91.855)" fill="#111"/>
        <path id="Path_7493" data-name="Path 7493" d="M190.977,67.59c-.078-2.6-4.139-1.789-4.139-3.239,0-.483.417-.808,1.214-.808A1.19,1.19,0,0,1,189.4,64.6h1.489c-.078-1.436-1.15-2.309-2.781-2.309-1.7,0-2.77.925-2.77,2.075,0,2.636,4.178,1.828,4.178,3.236,0,.5-.453.864-1.317.864a1.311,1.311,0,0,1-1.436-1.072h-1.542c.067,1.306,1.281,2.325,3,2.325,1.7,0,2.756-.914,2.756-2.128M182.2,67.46H180.59a1.74,1.74,0,0,1-1.7,1.006,1.98,1.98,0,0,1-2.05-1.906h5.5a4.679,4.679,0,0,0,.053-.733,3.355,3.355,0,0,0-3.5-3.536A3.443,3.443,0,0,0,175.3,66a3.492,3.492,0,0,0,3.589,3.723,3.285,3.285,0,0,0,3.3-2.259m-3.367-3.917a1.871,1.871,0,0,1,2.011,1.814h-3.984a1.96,1.96,0,0,1,1.972-1.814M165.713,66a3.441,3.441,0,0,0,3.525,3.723,3.235,3.235,0,0,0,3.317-2.389h-1.608a1.64,1.64,0,0,1-1.709,1.136c-1.2,0-2-.889-2-2.47s.795-2.453,2-2.453a1.68,1.68,0,0,1,1.709,1.136h1.608a3.129,3.129,0,0,0-3.317-2.389A3.435,3.435,0,0,0,165.713,66m-4.72,0a2.237,2.237,0,0,1-2.181,2.431,2.269,2.269,0,0,1-2.181-2.456,2.207,2.207,0,0,1,2.181-2.389A2.231,2.231,0,0,1,160.993,66m-5.889-.025a3.479,3.479,0,0,0,3.37,3.748,3.1,3.1,0,0,0,2.52-1.189V69.6h1.5v-7.2h-1.5v1.045A3.061,3.061,0,0,0,158.5,62.29a3.424,3.424,0,0,0-3.395,3.681M150.4,69.6h1.489V59.94H150.4Zm-3.178-6.373c0-1.475-1.058-2.7-3.211-2.7h-3.134V69.6h1.489V65.918h1.645c2.361,0,3.211-1.4,3.211-2.689M142.364,64.7V61.74h1.645c1.161,0,1.684.55,1.684,1.489,0,.914-.522,1.475-1.684,1.475Zm-4.851,4.034a.947.947,0,1,0-.942.956.941.941,0,0,0,.942-.956m-4.9,0a.946.946,0,1,0-.939.956.939.939,0,0,0,.939-.956m-4.953-1.278h-1.606a1.743,1.743,0,0,1-1.7,1.006,1.98,1.98,0,0,1-2.05-1.906h5.5a4.673,4.673,0,0,0,.05-.733,3.353,3.353,0,0,0-3.5-3.536A3.445,3.445,0,0,0,120.761,66a3.492,3.492,0,0,0,3.592,3.723,3.289,3.289,0,0,0,3.3-2.259m-3.37-3.917a1.867,1.867,0,0,1,2.011,1.814h-3.981a1.956,1.956,0,0,1,1.97-1.814M116.055,69.6h1.489V59.94h-1.489Zm-4.745-3.631a2.27,2.27,0,0,1-2.195,2.456,2.436,2.436,0,0,1,0-4.845,2.208,2.208,0,0,1,2.195,2.389m-4.373-2.509V62.407h-1.489V73.022h1.489V68.557a3.248,3.248,0,0,0,2.506,1.161,3.471,3.471,0,0,0,3.381-3.748,3.412,3.412,0,0,0-3.381-3.681,3.135,3.135,0,0,0-2.506,1.172M96.392,66a2.143,2.143,0,0,1,2.131-2.414A2.177,2.177,0,0,1,100.69,66a2.218,2.218,0,0,1-2.209,2.431c-1.122,0-2.089-.8-2.089-2.431m5.826,0a3.67,3.67,0,1,0-7.34,0,3.51,3.51,0,0,0,3.6,3.723A3.606,3.606,0,0,0,102.218,66M91.947,67.46h-1.6a1.747,1.747,0,0,1-1.7,1.006A1.976,1.976,0,0,1,86.6,66.56h5.5a4.677,4.677,0,0,0,.053-.733,3.355,3.355,0,0,0-3.5-3.536A3.443,3.443,0,0,0,85.055,66a3.492,3.492,0,0,0,3.589,3.723,3.285,3.285,0,0,0,3.3-2.259M88.58,63.543a1.869,1.869,0,0,1,2.011,1.814H86.608a1.96,1.96,0,0,1,1.972-1.814m-6.209-.314c0-1.475-1.056-2.7-3.211-2.7H76.026V69.6h1.489V65.918H79.16c2.364,0,3.211-1.4,3.211-2.689M77.515,64.7V61.74H79.16c1.161,0,1.684.55,1.684,1.489,0,.914-.522,1.475-1.684,1.475Zm-4.85,4.034a.946.946,0,1,0-.939.956.939.939,0,0,0,.939-.956m-4.9,0a.946.946,0,1,0-.939.956.939.939,0,0,0,.939-.956M61.1,69.6h1.475V65.357a2.8,2.8,0,0,0-2.95-3.067,2.755,2.755,0,0,0-2.139.939v-.822H55.994v7.2h1.489V65.579a1.743,1.743,0,0,1,1.814-2c1.083,0,1.8.678,1.8,2ZM46.937,66a2.143,2.143,0,0,1,2.128-2.414A2.177,2.177,0,0,1,51.235,66a2.218,2.218,0,0,1-2.209,2.431c-1.122,0-2.089-.8-2.089-2.431m5.826,0a3.67,3.67,0,1,0-7.34,0,3.508,3.508,0,0,0,3.6,3.723A3.606,3.606,0,0,0,52.763,66m-11.3-4.542a.953.953,0,1,0-.953-.953.939.939,0,0,0,.953.953M40.706,69.6H42.2v-7.2H40.706ZM37.342,67.59c-.078-2.6-4.137-1.789-4.137-3.239,0-.483.417-.808,1.214-.808A1.19,1.19,0,0,1,35.764,64.6h1.489c-.078-1.436-1.15-2.309-2.781-2.309-1.7,0-2.77.925-2.77,2.075C31.7,67,35.88,66.193,35.88,67.6c0,.5-.456.864-1.317.864a1.309,1.309,0,0,1-1.436-1.072H31.586c.064,1.306,1.278,2.325,3,2.325,1.7,0,2.753-.914,2.753-2.128m-8.726,0c-.078-2.6-4.139-1.789-4.139-3.239,0-.483.417-.808,1.214-.808A1.189,1.189,0,0,1,27.035,64.6h1.489c-.078-1.436-1.15-2.309-2.781-2.309-1.7,0-2.77.925-2.77,2.075,0,2.636,4.178,1.828,4.178,3.236,0,.5-.456.864-1.317.864A1.313,1.313,0,0,1,24.4,67.393H22.857c.067,1.306,1.281,2.325,3,2.325,1.7,0,2.756-.914,2.756-2.128M18.034,66a2.237,2.237,0,0,1-2.181,2.431,2.268,2.268,0,0,1-2.181-2.456,2.205,2.205,0,0,1,2.181-2.389A2.231,2.231,0,0,1,18.034,66m-5.889-.025a3.477,3.477,0,0,0,3.37,3.748,3.1,3.1,0,0,0,2.52-1.189V69.6h1.5v-7.2h-1.5v1.045a3.059,3.059,0,0,0-2.492-1.161,3.423,3.423,0,0,0-3.4,3.681M9.461,63.229c0-1.475-1.056-2.7-3.211-2.7H3.116V69.6H4.605V65.918H6.25c2.364,0,3.211-1.4,3.211-2.689M4.605,64.7V61.74H6.25c1.164,0,1.686.55,1.686,1.489,0,.914-.522,1.475-1.686,1.475Z" transform="translate(5.54 105.879)" fill="#111"/>
        <line id="Line_16" data-name="Line 16" x1="52.219" transform="translate(150.628 149.681)" fill="none" stroke="#009d97" stroke-width="0.638"/>
      </g>
    </g>
  </g>
</svg>
